<?xml version="1.0" encoding="UTF-8" standalone="no"?>
<svg xmlns="http://www.w3.org/2000/svg" viewBox="0 0 268 268"><defs><linearGradient id="a" x1="50%" x2="50%" y1="0%" y2="100%"><stop stop-color="#FDFDFD" offset="0%"/><stop stop-color="#E0E3E7" offset="100%"/></linearGradient><linearGradient id="b" x1="50%" x2="50%" y1="0%" y2="100%"><stop stop-color="#FBDA61" offset="0%"/><stop stop-color="#F76B1C" offset="100%"/></linearGradient><filter id="c" width="200%" height="200%" x="-50%" y="-50%" filterUnits="objectBoundingBox"><feOffset dy="1" in="SourceAlpha" result="shadowOffsetOuter1"/><feGaussianBlur stdDeviation="2" in="shadowOffsetOuter1" result="shadowBlurOuter1"/><feColorMatrix values="0 0 0 0 0 0 0 0 0 0 0 0 0 0 0 0 0 0 0.245 0" in="shadowBlurOuter1" result="shadowMatrixOuter1"/><feMerge><feMergeNode in="shadowMatrixOuter1"/><feMergeNode in="SourceGraphic"/></feMerge></filter></defs><g fill="none" fill-rule="evenodd" transform="translate(6 6)"><circle cx="128" cy="128" r="128" fill="url(#a)" stroke="url(#b)" stroke-width="11" filter="url(#c)"/><path fill="url(#b)" d="M150.335 181.23l35.362-87.526-.733-19.465c-.053-1.5-.95-2.78-2.336-3.34-1.39-.56-2.918-.27-3.995.77l-7.96 7.64c5.226-15.95 4.962-33.17-.836-49.04-.484-1.33-1.513-2.39-2.822-2.92-1.31-.53-2.79-.48-4.056.14-15.2 7.38-27.35 19.59-34.67 34.69l-.42-11.03c-.06-1.5-.95-2.77-2.34-3.33s-2.92-.27-4 .77l-14.05 13.49-35.36 87.52c-2.55 1.81-4.55 4.32-5.73 7.26l-2.97 7.33c-.34.83-.02 1.78.75 2.232l.916.547L60.9 177.33l-7.7 14.145c-.246.452-.29.99-.114 1.48.175.485.55.874 1.03 1.07l3.45 1.392-1.61 3.372c-.215.45-.236.977-.054 1.44.18.467.55.838 1.012 1.026l11.36 4.59c.463.185.984.172 1.44-.038.452-.21.8-.6.96-1.07l1.182-3.545 3.454 1.396c.48.196 1.02.176 1.484-.055.46-.224.804-.64.943-1.14l4.29-15.537 2.87-7.106 3.31 1.966-6.43 15.9c-.374.93.075 1.99 1.004 2.36l9.608 3.88c.93.38 1.986-.07 2.36-1l3.56-8.81 2.98 1.208-3.56 8.81c-.375.93.07 1.987 1.004 2.364l9.608 3.88c.93.376 1.99-.07 2.37-1l6.426-15.91 3.75.89-2.87 7.105-7.71 14.153c-.245.454-.29.99-.114 1.48.178.49.55.876 1.03 1.07l3.45 1.395-1.612 3.37c-.216.45-.237.976-.056 1.44.18.463.548.837 1.01 1.025l11.365 4.59c.463.19.99.177 1.44-.033.452-.214.8-.6.96-1.075l1.19-3.55 3.45 1.394c.48.195 1.02.175 1.48-.056.463-.225.804-.642.943-1.143l4.287-15.53 4.186-10.353 1.04.243c.874.2 1.76-.26 2.097-1.09l2.963-7.33c1.18-2.927 1.49-6.12.92-9.194zm-31.823 7.806l3.17-7.848 23.69 9.57-1.7 4.206-25.16-5.928zm5.905-117.716L99.05 134.104c-3.655 3.04-7.67 5.672-11.985 7.833l-9.918 4.958 32.883-81.388 14.387 5.813zm-48.47 80.232l12.742-6.37c7.76-3.886 14.62-9.23 20.23-15.663l-14.8 36.62-23.57-9.52c1.25-2.18 3.12-3.94 5.39-5.07zm58.045-63.963l14.936 6.03c-.937 9.1-3.117 17.99-6.515 26.54l-22.176-8.96c3.5-8.51 8.112-16.42 13.755-23.62zm2.396-2.95c.955-1.13 1.936-2.24 2.946-3.33 2.015-2.18 4.66-2.18 6.465-1.45 1.8.73 3.7 2.56 3.64 5.53-.03 1.48-.1 2.96-.19 4.44l-12.87-5.2zm-17.515 29.92l22.19 8.96-22.055 54.58-22.188-8.97 22.053-54.59zm4.17 63.25l14.794-36.62c-.434 8.52.786 17.12 3.676 25.31l4.744 13.43c.843 2.39.958 4.952.357 7.39l-23.57-9.527h-.002zm44.08-89.25l14.388 5.81-32.88 81.39-3.69-10.46c-1.6-4.55-2.66-9.23-3.18-13.95l25.37-62.79zm14.027-14.27c.02-.03.05-.05.112-.03.066.02.066.06.07.1l.616 16.28-12.557-5.08 11.76-11.27zm-16.61-43.53c.705-.34 1.614.02 1.884.76 4.726 12.93 5.59 26.82 2.61 40.08L134.82 57.78c7.07-11.61 17.34-21 29.73-27.022zm-34.95 37.43c1.004-2.49 2.143-4.9 3.405-7.23l35.135 14.2.04-.1c-.72 2.59-1.583 5.15-2.6 7.67l-24.155 59.78c.238-7.26 1.74-14.48 4.507-21.32l-.01-.01c4.492-11.42 6.906-23.43 7.162-35.715.08-3.97-2.242-7.49-5.917-8.97-3.676-1.49-7.793-.57-10.486 2.34-8.34 9.01-14.95 19.32-19.66 30.66v-.008c-2.76 6.84-6.7 13.074-11.56 18.46l24.15-59.78zm-5.537-16.97c.027-.03.053-.05.12-.03.067.025.07.06.07.1l.614 16.28L112.3 62.5l11.753-11.282zM67.86 201.79l-7.786-3.14.875-1.83 7.55 3.05-.65 1.93zm-10.483-10.33l6.006-11.027 14.755 5.96-3.34 12.106-17.42-7.04zm21.94-8.515l-14.387-5.813 3.333-8.25 13.493 8.024-2.44 6.04zm-11.935-18.81l1.7-4.204 23.685 9.57-3.172 7.85-22.213-13.21zM92.08 198.86l-6.243-2.523 4.324-10.702c1.54-3.792 5.5-5.89 9.38-5.222l-7.46 18.447zm14.545-17.744l-3.966 9.817-2.98-1.203 3.96-9.817c.37-.93-.08-1.988-1.01-2.363-3.09-1.246-6.39-1.133-9.24.056l2.05-5.09 22.19 8.965-2.06 5.1c-1.228-2.83-3.524-5.21-6.608-6.46-.93-.37-1.986.07-2.363 1.01zm-4.84 21.665l7.452-18.44c3.243 2.21 4.635 6.46 3.122 10.24l-4.34 10.73-6.24-2.52zm23.167 22.09l-7.785-3.14.877-1.83 7.552 3.05-.644 1.93zm-10.485-10.33l6.006-11.02 14.755 5.96-3.342 12.11-17.42-7.04zm21.942-8.51l-14.39-5.81 2.44-6.03 15.28 3.605-3.33 8.247z"/></g></svg>
