<?xml version="1.0" encoding="UTF-8" standalone="no"?>
<svg width="531px" height="296px" viewBox="0 0 531 296" version="1.1" xmlns="http://www.w3.org/2000/svg" xmlns:xlink="http://www.w3.org/1999/xlink">
    <defs></defs>
    <g id="Page-1" stroke="none" stroke-width="1" fill="none" fill-rule="evenodd">
        <path d="M384.357136,123.882225 L373.285716,136.025085 L340.071426,161.739365 L338.999996,167.096505 L339.357136,171.739365 L303.876636,168.126855 C303.876636,168.126855 303.657076,178.308795 303.667576,178.596425 C303.714776,179.888315 292.488076,180.861755 291.814896,179.613415 C291.352776,178.756455 291.627026,175.337575 291.627026,175.337575 L288.906886,179.100375 L288.285726,187.096465 C287.261386,190.047775 285.617546,191.760105 283.642876,192.810755 L283.285726,198.882185 C287.819686,196.736545 291.684096,202.625505 295.785726,205.667895 L299.000016,205.667895 C299.301826,203.684325 300.638786,204.288635 301.857156,204.596465 C306.007426,202.677265 308.514696,205.276335 310.785726,208.525045 L297.214306,221.025045 C296.052666,217.773545 293.718296,217.649315 291.142876,218.167895 C287.668706,221.110575 283.641496,220.182035 279.714306,219.953615 C278.985926,217.786455 277.455166,217.625245 275.785726,217.810755 C275.399236,216.083735 273.855546,216.671125 272.571446,216.739325 C269.556126,212.244575 273.202176,210.172145 275.071446,207.453615 L271.500016,208.882185 L240.428586,194.953615 C238.597186,195.915685 236.661226,196.354925 234.357156,194.953615 L229.714306,198.882185 C228.533476,200.481825 223.271796,198.072915 224.000016,194.596465 L228.642876,190.310755 L210.428586,183.525045 C204.833356,179.179815 213.107156,162.275035 219.714306,164.953615 L229.000016,168.882185 L227.928586,140.310755 L247.928586,144.953615 L247.928586,166.382185 L268.642876,149.239325 L269.000016,137.453615 C264.552316,134.934985 266.374496,133.556335 269.714306,132.453615 C272.436806,130.164795 275.326046,130.710515 278.285726,132.453615 C278.771516,131.717435 279.522146,132.570295 280.236216,133.203805 L282.928586,134.239325 C285.485906,133.306985 287.605766,132.056495 287.571446,129.239325 C282.907756,128.649245 282.032346,123.141655 288.732156,122.989325 C292.874226,122.820755 295.065056,127.384285 289.357156,128.882185 C290.168196,133.554265 288.391776,135.240805 286.142876,136.382185 L285.428586,142.810755 L292.214306,137.453615 C292.455906,133.293965 294.784816,133.308925 296.857156,132.810755 L297.214306,127.453615 L318.642876,110.310755 C320.666686,108.240815 322.690496,108.947795 324.714306,110.667895 L326.500016,109.953615 L327.571446,106.025045 L289.357156,91.0250446 L307.729656,77.2162846 L340.120666,90.5075946 L351.428386,79.4166746 L358.265756,76.7398146 L356.986546,74.1483446 L326.887586,60.0191946 L337.991016,50.0854146 L368.932056,65.1229746 L372.312716,66.6243946 L375.485106,64.2162446 L381.147746,58.1382346 L395.094346,49.3899446 C409.832856,47.5371546 408.665206,65.2155246 406.064426,65.5500446 L393.961226,74.6970746 L425.485986,87.8171846 L414.522466,97.0493246 L380.661246,82.0490246 L373.285736,87.8108146 L370.785736,86.7393846 C372.377606,92.9658346 365.827086,95.7026846 361.142876,99.2393846 L365.071446,101.025105 L375.785736,93.1679546 L376.500016,105.667955 L382.214306,107.453675 L397.214306,113.882245 L384.357136,123.882225 Z M314.178566,135.132225 L324.714286,126.917935 L325.607136,124.417935 C328.614946,134.496815 321.395876,134.813685 314.178566,135.132225 L314.178566,135.132225 Z M338.285716,123.346505 C341.439896,120.310205 344.402876,117.082725 348.464286,114.953655 L343.642856,112.810795 L346.857136,109.060795 L344.357136,107.989365 L340.964286,111.917935 L337.571426,111.025085 L335.071426,114.953655 C338.695936,117.113005 338.349956,120.264975 338.285716,123.346505 L338.285716,123.346505 Z" id="path3322" fill="#CCCCCC"></path>
        <path d="M125.569876,111.282519 L125.076949,102.286629 L125.076949,102.286629 L33.099036,173.186285 L0.521616,158.033995 L97.748796,84.0403146 L113.846627,91.2088782 C104.109078,85.4909446 119.135014,84.0322466 130.02479,84.5361617 L130.02479,84.5361617 L110.12316,75.70656 L206.08765,0.45019 L243.96837,16.61263 L148.366579,89.7923625 L154.846847,92.5410399 L250.029286,20.6532446 L284.627006,33.0276146 L187.217662,106.271478 L187.217662,106.271478 L360.669241,179.842877 L356.988536,178.042245 L451.564066,104.174845 L488.939706,120.337285 L393.798447,193.894995 L398.908429,196.06245 L398.908429,196.06245 L493.34978,122.29985 L530.72542,138.46229 L433.87705,213.33984 L405.177827,199.299935 C408.254698,204.698416 410.165405,213.390046 400.674689,213.22317 L417.588346,220.537185 L320.739976,295.414735 L285.637176,278.242145 L378.779536,205.49411 L374.319022,203.559211 L278.954256,277.289725 L243.851456,260.117135 L336.994605,187.368484 L182.92857,120.537136 L182.92857,164.95365 L172.92857,160.66793 L172.92857,119.164865 L139.145796,144.714152 L139.35714,153.16793 L132.243313,149.934373 L76.788126,191.874105 L40.675176,175.964205 L125.569876,111.282519 Z M138.071873,101.757187 L138.054733,101.071593 L138.639042,101.325057 L138.071873,101.757187 Z M124.735648,96.0578945 L124.722346,95.8151271 C123.774389,95.4879114 122.881886,95.1691546 122.042688,94.8586859 L124.735648,96.0578945 L124.735648,96.0578945 Z" id="path2265" fill="#CCCCCC"></path>
    </g>
</svg>